<svg fill="none" height="24" viewBox="0 0 24 24" width="24" xmlns="http://www.w3.org/2000/svg"><g fill="#292d32"><path d="m14.6998 22.75h-5.40003c-4.94 0-7.04-2.11-7.04-7.04v-4.49c0-.41.34-.75.75-.75s.75.34.75.75v4.49c0 4.09 1.45 5.54 5.54 5.54h5.39003c4.09 0 5.54-1.45 5.54-5.54v-4.49c0-.41.34-.75.75-.75s.75.34.75.75v4.49c.01 4.93-2.1 7.04-7.03 7.04z"/><path d="m11.999 12.75c-1.1 0-2.09998-.43-2.80998-1.22s-1.04-1.82-.93-2.92l.67001-6.68c.04-.38.36-.68.75-.68h4.66997c.39 0 .71.29.75.68l.67 6.68c.11 1.1-.22 2.13-.93 2.92-.74.79-1.74 1.22-2.84 1.22zm-1.65-10-.59998 6.01c-.07.67.13001 1.3.54998 1.76.85.94 2.55.94 3.4 0 .42-.47.62-1.1.55-1.76l-.6-6.01z"/><path d="m18.31 12.75c-2.03 0-3.84-1.64-4.05-3.66l-.7-7.01c-.02-.21.05-.42.19-.58s.34-.25.56-.25h3.05c2.94 0 4.31 1.23 4.72 4.25l.28 2.78c.12 1.18-.24 2.3-1.01 3.15s-1.85 1.32-3.04 1.32zm-3.17-10 .62 6.19c.13 1.25 1.29 2.31 2.55 2.31.76 0 1.44-.29 1.93-.82.48-.53.7-1.24.63-2l-.28-2.75c-.31-2.26-1.04-2.93-3.23-2.93z"/><path d="m5.63904 12.75c-1.19 0-2.27-.47-3.04-1.32s-1.13-1.97-1.01-3.15l.27-2.75c.42-3.05 1.79-4.28 4.73001-4.28h3.04999c.21 0 .40996.09.55996.25s.21.37.19.58l-.69996 7.01c-.21 2.02-2.02 3.66-4.05 3.66zm.95001-10c-2.19001 0-2.92001.66-3.24001 2.95l-.27 2.73c-.08.76.15 1.47.63 2s1.16.82 1.93.82c1.26 0 2.43-1.06 2.55-2.31l.62001-6.19z"/><path d="m14.5 22.75h-5c-.41 0-.75-.34-.75-.75v-2.5c0-2.1 1.15-3.25 3.25-3.25s3.25 1.15 3.25 3.25v2.5c0 .41-.34.75-.75.75zm-4.25-1.5h3.5v-1.75c0-1.26-.49-1.75-1.75-1.75s-1.75.49-1.75 1.75z"/></g></svg>