<?xml version="1.0" encoding="UTF-8"?>
<svg id="Layer_2" data-name="Layer 2" xmlns="http://www.w3.org/2000/svg" viewBox="0 0 476 201.44">
  <defs>
    <style>
      .cls-1 {
        fill: #673ab7;
      }

      .cls-2 {
        fill: #212121;
      }
    </style>
  </defs>
  <g id="Layer_1-2" data-name="Layer 1">
    <g>
      <g>
        <path class="cls-2" d="m233.98,54.88c-.31.08-.31.63-.31.63h21.09s0-.55-.24-.63c-1.57-.47-6.51,0-6.51-10.03v-16.15h36.3v16.31c-.08,9.88-5.02,9.41-6.51,9.88-.24.08-.24.63-.24.63h21.09s0-.55-.31-.63c-1.49-.47-6.51,0-6.51-10.03V11.29c0-10.03,5.02-9.56,6.51-10.03.31-.08.31-.63.31-.63h-21.09s0,.55.24.63c1.57.47,6.51,0,6.51,10.03v16.15h-36.3V11.29c0-10.03,4.94-9.56,6.51-10.03.24-.08.24-.63.24-.63h-21.09s0,.55.31.63c1.49.47,6.51,0,6.51,10.03v33.55c0,10.03-5.02,9.56-6.51,10.03Z"/>
        <path class="cls-2" d="m304.38,47.66c0,7.21,6.19,8.94,11.37,8.94,6.43,0,14.97-3.68,20.23-6.51.71,3.68,3.61,5.88,6.9,5.88,2.59,0,5.49-1.41,7.76-4.63l-.24-.55s-.16-.39-.55,0c-1.72,2.12-3.21,3.37-4.39,3.37-1.57,0-2.59-2.27-2.59-7.84v-10.19c0-11.05-2.51-20.7-18.34-20.7-5.88,0-13.72,1.96-17.4,6.74-.71.86-.94,1.8-.94,2.67,0,2.19,1.96,4,4.16,4,1.1,0,2.19-.39,3.21-1.41,4.39-4.47,2.82-10.5,10.66-10.74,7.21-.16,9.96,5.02,10.97,11.29-2.27,8.15-30.81,7.29-30.81,19.68Zm31.12-17.17c.31,3.21.31,6.51.31,9.49v8.86c-5.96,3.45-11.68,5.17-15.99,5.17-4.78,0-7.84-2.12-7.84-6.27,0-11.68,18.74-10.74,23.52-17.25Z"/>
        <path class="cls-2" d="m364.58,9.96c2.67,0,5.33-1.72,5.33-5.02s-2.67-4.94-5.33-4.94-5.33,1.65-5.33,4.94,2.67,5.02,5.33,5.02Z"/>
        <path class="cls-2" d="m354.86,54.88c-.31.08-.31.63-.31.63h20.62s0-.55-.31-.63c-1.49-.47-6.51,0-6.51-10.03V14.27l-13.8,4s0,.55.24.63c.71-.16,1.72-.47,2.67-.47,1.96,0,3.84,1.1,3.84,6.51v19.91c0,10.03-4.94,9.56-6.43,10.03Z"/>
        <path class="cls-2" d="m380.26,54.88c-.31.08-.31.63-.31.63h20.62s0-.55-.31-.63c-1.49-.47-6.27,0-6.51-9.25v-21.09c4.08-3.45,6.51-4.55,8.54-4.55,2.19,0,3.92,1.25,6.51,1.88,3.06.78,4.86-1.49,4.86-3.68,0-2.9-2.82-3.76-5.25-3.76-5.1,0-10.35,4.08-14.66,8.86v-8.94l-13.8,3.92s0,.55.31.63c.71-.08,1.65-.39,2.67-.39,1.88,0,3.76,1.02,3.76,6.43v19.91c0,10.03-4.94,9.56-6.43,10.03Z"/>
        <path class="cls-2" d="m249.35,127.26c-1.41-.47-7.68-1.1-7.68-9.25,0-.71.08-1.49.16-2.27l4.62-36.45,23.36,48.61h1.49l22.73-47.43,4.63,37c.08,1.02.16,1.96.16,2.74,0,6.9-3.76,6.66-5.1,7.06-.31.08-.31.63-.31.63h21.09s0-.55-.31-.63c-1.49-.47-6.51-.08-7.68-10.03l-4.31-34.1c-.08-.94-.16-1.8-.16-2.59,0-5.64,2.74-6.98,4.47-6.98.31,0,.24-.55.24-.55h-10.5l-22.03,45.7-21.95-45.7h-12.23s.16.55.39.55c1.57,0,5.41.94,4.7,5.8l.08-.31-4.47,36.14c-1.33,10.27-6.66,11.6-8.07,12.07-.31.08-.31.63-.31.63h17.17s.08-.55-.16-.63Z"/>
        <path class="cls-2" d="m365.13,123.73l-.24-.55s-.16-.39-.55,0c-1.72,2.12-3.21,3.37-4.39,3.37-1.57,0-2.59-2.27-2.59-7.84v-10.19c0-11.05-2.51-20.7-18.34-20.7-5.88,0-13.72,1.96-17.4,6.74-.71.86-.94,1.8-.94,2.67,0,2.19,1.96,4,4.16,4,1.1,0,2.19-.39,3.21-1.41,4.39-4.47,2.82-10.51,10.66-10.74,7.21-.16,9.96,5.02,10.98,11.29-2.27,8.15-30.81,7.29-30.81,19.68,0,7.21,6.19,8.94,11.37,8.94,6.43,0,14.97-3.68,20.23-6.51.71,3.68,3.61,5.88,6.9,5.88,2.59,0,5.49-1.41,7.76-4.63Zm-14.82-2.51c-5.96,3.45-11.68,5.17-15.99,5.17-4.78,0-7.84-2.12-7.84-6.27,0-11.68,18.74-10.74,23.52-17.25.31,3.21.31,6.51.31,9.49v8.86Z"/>
        <path class="cls-2" d="m369.36,127.26c-.31.08-.31.63-.31.63h20.62s0-.55-.31-.63c-1.49-.47-6.51,0-6.51-10.03v-30.57l-13.8,4s0,.55.24.63c.71-.16,1.73-.47,2.67-.47,1.96,0,3.84,1.1,3.84,6.51v19.91c0,10.03-4.94,9.56-6.43,10.03Z"/>
        <path class="cls-2" d="m373.75,77.32c0,3.29,2.67,5.02,5.33,5.02s5.33-1.72,5.33-5.02-2.67-4.94-5.33-4.94-5.33,1.65-5.33,4.94Z"/>
        <path class="cls-2" d="m445.8,127.26c-1.49-.47-6.51,0-6.51-10.03v-5.88c0-10.82-.63-23.44-18.58-23.44-5.64,0-10.35,3.53-12.46,6.9v-8.07l-13.8,3.92s0,.55.31.63c.71-.08,1.65-.39,2.67-.39,1.88,0,3.76,1.02,3.76,6.43v19.91c0,10.03-4.94,9.56-6.43,10.03-.31.08-.31.63-.31.63h20.62s0-.55-.31-.63c-1.49-.47-6.51,0-6.51-10.03v-20.62c1.57-2.59,5.02-6.66,11.68-6.66,13.17,0,12.23,14.97,12.31,23.13v4.16c0,10.03-4.94,9.56-6.43,10.03-.31.08-.31.63-.31.63h20.62s0-.55-.31-.63Z"/>
        <path class="cls-2" d="m241.19,156.05c0-5.64,5.41-10.27,13.88-10.35,11.05-.08,14.42,8.7,18.89,13.09,1.02,1.02,2.12,1.41,3.21,1.41,2.19,0,4.08-1.72,4.08-3.92,0-.86-.24-1.8-.94-2.67-4.39-5.72-12.62-9.25-22.89-9.25-11.37,0-21.56,4.55-21.56,14.42,0,19.52,41,16.54,41,30.81,0,6.59-7.29,9.8-17.01,9.8-11.92,0-21.95-9.96-21.95-22.81,0,0-.55.08-.55.31l-1.57,16.46c5.1,5.33,14.11,7.84,22.97,7.84,12.47,0,23.91-5.8,23.91-14.89,0-20.3-41.47-15.91-41.47-30.26Z"/>
        <path class="cls-2" d="m316.76,190.15c-2.51,5.49-6.59,8.39-9.96,8.39-2.98,0-5.33-2.35-5.33-7.45v-28.77h13.95v-1.25h-13.95v-11.68h-1.25v1.25c-.24,5.33-1.88,10.43-9.41,10.43h-2.82v1.25h6.43v29.01c0,5.88,4.08,9.56,9.25,9.56,4.55,0,9.8-2.82,13.95-9.64.16-.55-.47-1.96-.86-1.1Z"/>
        <path class="cls-2" d="m350.08,159.19c-5.1,0-10.35,4.08-14.66,8.86v-8.94l-13.8,3.92s0,.55.31.63c.71-.08,1.65-.39,2.67-.39,1.88,0,3.76,1.02,3.76,6.43v19.91c0,10.03-4.94,9.56-6.43,10.03-.31.08-.31.63-.31.63h20.62s0-.55-.31-.63c-1.49-.47-6.27,0-6.51-9.25v-21.09c4.08-3.45,6.51-4.55,8.55-4.55,2.19,0,3.92,1.25,6.51,1.88,3.06.78,4.86-1.49,4.86-3.68,0-2.9-2.82-3.76-5.25-3.76Z"/>
        <path class="cls-2" d="m385.67,199.72c-11.29,0-18.34-13.33-18.34-24.22h30.5c-1.25-8.62-9.33-15.05-17.72-15.05-9.72,0-19.83,6.43-19.83,20.38,0,10.58,7.06,20.62,21.72,20.62,10.58,0,15.37-4.7,17.33-11.68l-1.1-.55c-.47,2.98-4.08,10.5-12.54,10.5Zm-7.29-37.86c6.98,0,10.98,8.7,11.99,12.47h-22.97c.39-6.82,3.76-12.47,10.98-12.47Z"/>
        <path class="cls-2" d="m429.65,199.72c-11.29,0-18.34-13.33-18.34-24.22h30.5c-1.25-8.62-9.33-15.05-17.72-15.05-9.72,0-19.83,6.43-19.83,20.38,0,10.58,7.06,20.62,21.72,20.62,10.58,0,15.36-4.7,17.33-11.68l-1.1-.55c-.47,2.98-4.08,10.5-12.54,10.5Zm-7.29-37.86c6.98,0,10.98,8.7,11.99,12.47h-22.97c.39-6.82,3.76-12.47,10.98-12.47Z"/>
        <path class="cls-2" d="m475.11,190.15c-2.51,5.49-6.58,8.39-9.96,8.39-2.98,0-5.33-2.35-5.33-7.45v-28.77h13.95v-1.25h-13.95v-11.68h-1.25v1.25c-.24,5.33-1.88,10.43-9.41,10.43h-2.82v1.25h6.43v29.01c0,5.88,4.08,9.56,9.25,9.56,4.55,0,9.8-2.82,13.95-9.64.16-.55-.47-1.96-.86-1.1Z"/>
      </g>
      <g>
        <path class="cls-1" d="m45.44,94.84c-10.66-10.66-18.65-26.03-23.82-45.9v9.52c5.17,19.87,13.17,35.24,23.82,45.9v-9.52Z"/>
        <path class="cls-1" d="m66.11,199.18c-4.98-1.73-20.67,0-20.67-36.69v-28c-10.66-10.66-18.65-26.03-23.82-45.9v73.9c0,36.69-15.89,34.96-20.62,36.69-1,.3-1,2.27-1,2.27h66.81s0-1.97-.7-2.27Z"/>
        <path class="cls-1" d="m21.62,79.07c5.17,19.87,13.17,35.24,23.82,45.9v-9.52c-10.66-10.66-18.65-26.03-23.82-45.9v9.52Z"/>
        <path class="cls-1" d="m1.01,3.19c3.97,1.45,15.94.46,19.56,22.26l13.47,16.64c3.77,4.93,7.54,9.22,11.41,12.93v-15.13C45.45,3.19,61.14,4.93,66.11,3.19c.7-.29.7-2.26.7-2.26H0s0,1.97,1.01,2.26Z"/>
        <path class="cls-1" d="m204.97,198.25c-4.22-1.57-17.34-.35-20.06-26.2l-9.4-7.83c-3.32-2.67-6.28-5.16-9.05-7.48-2.06-1.74-4.02-3.36-5.93-4.93v10.32c-.25,36.11-15.94,34.38-20.66,36.11-.7.29-.7,2.26-.7,2.26h66.82s0-1.97-1.01-2.26Z"/>
        <path class="cls-1" d="m160.54,112.4c12.96,12.47,18.54,27.42,23.82,43.25v-9.52c-5.28-15.83-10.87-30.79-23.82-43.25v9.52Z"/>
        <path class="cls-1" d="m139.87,2.25c4.98,1.74,20.67,0,20.67,36.7v30.61c12.96,12.47,18.54,27.42,23.82,43.25V38.96c0-36.7,15.89-34.96,20.62-36.7,1-.29,1-2.25,1-2.25h-66.81s0,1.97.7,2.25Z"/>
        <path class="cls-1" d="m184.36,123.93c-5.28-15.83-10.87-30.79-23.82-43.25v11.1c12.96,12.47,18.54,27.42,23.82,43.25v-11.1Z"/>
        <path class="cls-1" d="m160.53,144.75c5.53,4.35,10.76,8.98,17.95,14.78l2.46,2.09c-5.53-16.69-10.21-30.09-20.41-41.33-1.71-1.97-3.57-3.83-5.63-5.62-17.45-15.65-39.32-23.36-60.83-27.94-19.36-5.39-34.59-11.71-48.62-24.17-5.18-4.58-10.21-10.09-15.18-16.64l-5.83-7.19c3.67,17.56,10.11,35.3,21.02,48.11,1.76,2.14,3.72,4.12,5.78,5.97,11.01,9.51,23.68,16.23,36.85,20.52,19.16,4.87,38.81,9.74,56.31,20.58,6.49,3.71,11.41,7.13,16.14,10.84Z"/>
      </g>
    </g>
  </g>
</svg>