<svg fill="none" height="24" viewBox="0 0 24 24" width="24" xmlns="http://www.w3.org/2000/svg"><g fill="#000"><path d="m8 9.50004c-.69036 0-1.25.55966-1.25 1.24996 0 .6904.55964 1.25 1.25 1.25s1.25-.5596 1.25-1.25c0-.6903-.55964-1.24996-1.25-1.24996z"/><path d="m12 9.50004c-.6904 0-1.25.55966-1.25 1.24996 0 .6904.5596 1.25 1.25 1.25s1.25-.5596 1.25-1.25c0-.6903-.5596-1.24996-1.25-1.24996z"/><path d="m14.75 10.75c0-.6903.5596-1.24996 1.25-1.24996s1.25.55966 1.25 1.24996c0 .6904-.5596 1.25-1.25 1.25s-1.25-.5596-1.25-1.25z"/><path clip-rule="evenodd" d="m16.1007 4.59283c-2.6942-.22976-5.4024-.24309-8.09876-.03987l-.19323.01456c-2.5713.1938-4.55871 2.33663-4.55871 4.91523v8.51725c0 .2639.13867.5084.36515.6438s.50746.1418.73989.0169l3.91079-2.1017c.18191-.0978.38521-.149.59173-.149h8.97644c1.1321 0 2.1022-.8094 2.3052-1.9231.4113-2.2572.4437-4.5672.0961-6.83511l-.1024-.66833c-.1865-1.21675-1.1819-2.14756-2.4084-2.25216zm-7.98602 1.45588c2.61632-.19719 5.24432-.18425 7.85862.03869l1.6237.13848c.5364.04574.9716.45277 1.0532.98485l.1024.66833c.3224 2.10328.2923 4.24554-.0891 6.33894-.0731.4008-.4222.692-.8295.692h-8.97644c-.45434 0-.9016.1126-1.30181.3277l-2.80575 1.5078v-7.26275c0-1.79391 1.38262-3.28465 3.17144-3.41947z" fill-rule="evenodd"/></g></svg>